<svg id="Capa_1" enable-background="new 0 0 497 497" height="512" viewBox="0 0 497 497" width="512" xmlns="http://www.w3.org/2000/svg"><g><g><g><path d="m397.4 100.195v198.479c0 9.15-7.418 16.568-16.568 16.568v5h-264.664v-5c-9.15 0-16.568-7.418-16.568-16.568v-198.479z" fill="#ffc200"/><path d="m224.598-24.803h28.02v278.016h-28.02z" fill="#fe9900" transform="matrix(0 1 -1 0 352.813 -124.403)"/><path d="m374.4 100.195v198.478c0 9.15-7.418 16.568-16.568 16.568h23c9.15 0 16.568-7.418 16.568-16.568v-198.478z" fill="#fe9900"/><path d="m413.966 8.283v88.628c0 4.575-3.709 8.283-8.283 8.283h-314.366c-4.575 0-8.283-3.709-8.283-8.283v-88.628c0-4.574 3.708-8.283 8.283-8.283h108.019l47.522 11 51.099-11h107.726c4.575 0 8.283 3.709 8.283 8.283z" fill="#ffd900"/><path d="m257.267 282.107h-116.533c-4.418 0-8-3.582-8-8v-75.117c0-4.418 3.582-8 8-8h116.533c4.418 0 8 3.582 8 8v75.117c0 4.418-3.581 8-8 8z" fill="#f3edea"/><g><path d="m165.868 264.757c-4.143 0-7.5-3.358-7.5-7.5v-8.283c0-4.142 3.357-7.5 7.5-7.5s7.5 3.358 7.5 7.5v8.283c0 4.142-3.358 7.5-7.5 7.5z" fill="#004a84"/></g><g><path d="m199 264.757c-4.143 0-7.5-3.358-7.5-7.5v-8.283c0-4.142 3.357-7.5 7.5-7.5s7.5 3.358 7.5 7.5v8.283c0 4.142-3.357 7.5-7.5 7.5z" fill="#004a84"/></g><g><path d="m232.134 264.757c-4.143 0-7.5-3.358-7.5-7.5v-8.283c0-4.142 3.357-7.5 7.5-7.5s7.5 3.358 7.5 7.5v8.283c0 4.142-3.357 7.5-7.5 7.5z" fill="#004a84"/></g><path d="m405.683 0h-23c4.575 0 8.283 3.709 8.283 8.283v88.628c0 4.575-3.708 8.283-8.283 8.283h23c4.575 0 8.283-3.709 8.283-8.283v-88.628c0-4.574-3.708-8.283-8.283-8.283z" fill="#ffc200"/></g><path d="m198.8 100.195v41.096c0 4.575 3.709 8.283 8.283 8.283h82.833c4.575 0 8.283-3.709 8.283-8.283v-41.096z" fill="#e3dcda"/><path d="m275.2 100.195v41.096c0 4.575-3.708 8.283-8.283 8.283h23c4.575 0 8.283-3.708 8.283-8.283v-41.096z" fill="#dbceca"/><path d="m198.8 0h99.4v105.195h-99.4z" fill="#f3edea"/><path d="m275.2 0h23v105.195h-23z" fill="#e3dcda"/><path d="m257.267 190.99h-23c4.418 0 8 3.582 8 8v75.117c0 4.418-3.582 8-8 8h23c4.418 0 8-3.582 8-8v-75.117c0-4.418-3.581-8-8-8z" fill="#e3dcda"/><path d="m257.267 190.99h-116.533c-4.418 0-8 3.582-8 8v25.133h132.533v-25.133c0-4.418-3.581-8-8-8z" fill="#ff5b5b"/><path d="m257.267 190.99h-23c4.418 0 8 3.582 8 8v25.133h23v-25.133c0-4.418-3.581-8-8-8z" fill="#e50048"/></g><g><path d="m405.693 497c50.261 0 91.006-40.745 91.006-91.006s-40.745-91.006-91.006-91.006h-314.386c-50.261 0-91.006 40.745-91.006 91.006s40.745 91.006 91.006 91.006z" fill="#0068ae"/><path d="m405.693 314.987h-23c50.262 0 91.006 40.745 91.006 91.006 0 50.262-40.745 91.006-91.006 91.006h23c50.262 0 91.006-40.745 91.006-91.006s-40.745-91.006-91.006-91.006z" fill="#004a84"/><path d="m405.693 463.907c31.985 0 57.913-25.929 57.913-57.913 0-31.985-25.928-57.913-57.913-57.913h-314.386c-31.985 0-57.913 25.928-57.913 57.913 0 31.984 25.928 57.913 57.913 57.913z" fill="#004a84"/><g fill="#f3edea"><circle cx="91.307" cy="405.994" r="24.82"/><circle cx="248.5" cy="405.994" r="24.82"/><circle cx="405.693" cy="405.994" r="24.82"/></g><g><path d="m174.04 413.494h-16.547c-4.142 0-7.5-3.357-7.5-7.5s3.358-7.5 7.5-7.5h16.547c4.142 0 7.5 3.357 7.5 7.5s-3.357 7.5-7.5 7.5z" fill="#d1cbc9"/></g><g><path d="m339.506 413.494h-16.547c-4.142 0-7.5-3.357-7.5-7.5s3.358-7.5 7.5-7.5h16.547c4.142 0 7.5 3.357 7.5 7.5s-3.358 7.5-7.5 7.5z" fill="#d1cbc9"/></g></g></g></svg>