<?xml version="1.0" encoding="iso-8859-1"?>
<!-- Generator: Adobe Illustrator 19.0.0, SVG Export Plug-In . SVG Version: 6.00 Build 0)  -->
<svg version="1.1" id="Capa_1" xmlns="http://www.w3.org/2000/svg" xmlns:xlink="http://www.w3.org/1999/xlink" x="0px" y="0px"
	 viewBox="0 0 512 512" style="enable-background:new 0 0 512 512;" xml:space="preserve">
<polygon style="fill:#FFFFFF;" points="475.04,176.86 36.02,176.46 36,177 36,502 476,502 476,177 "/>
<path style="fill:#BF8BDE;" d="M96,290c0,11.784,0,200.216,0,212h120c0-11.784,0-200.216,0-212H96z"/>
<path style="fill:#444B75;" d="M436,30v20c-80.933,0-289.508,0-360,0V30c0-11.05,8.95-20,20-20h320C427.05,10,436,18.95,436,30z"/>
<rect x="296" y="290" style="fill:#BF8BDE;" width="120" height="106"/>
<g>
	<path style="fill:#ED589D;" d="M436,50h-60l40,120v20c0,22.09,20.91,40,43,40c22.092,0,43-17.908,43-40v-20L436,50z"/>
	<path style="fill:#ED589D;" d="M256,50c0,20.629,0,122.434,0,140c0,22.09,17.91,40,40,40s40-17.91,40-40v-20L316,50H256z"/>
	<path style="fill:#ED589D;" d="M96,170v20c0,22.09,17.91,40,40,40s40-17.91,40-40v-20l20-120h-60L96,170z"/>
</g>
<g>
	<path style="fill:#FFC342;" d="M376,50h-60l20,120v20c0,22.09,17.91,40,40,40s40-17.91,40-40v-20L376,50z"/>
	<path style="fill:#FFC342;" d="M176,170v20c0,22.09,17.91,40,40,40s40-17.91,40-40v-20V50h-60L176,170z"/>
	<path style="fill:#FFC342;" d="M10,170v20c0,22.044,20.88,40,43,40c22.09,0,43-17.91,43-40v-20l40-120H76L10,170z"/>
</g>
<path d="M416,426c-5.52,0-10,4.48-10,10s4.48,10,10,10s10-4.48,10-10S421.52,426,416,426z"/>
<path d="M446,47.432V30c0-16.542-13.458-30-30-30H96C79.458,0,66,13.458,66,30v17.432C0.773,167.896,0.003,164.319,0,169.989
	c0,0.004,0,0.007,0,0.011v20c0,17.333,10.022,33.453,26,42.62V502c0,5.522,4.478,10,10,10h440c5.522,0,10-4.478,10-10V232.62
	c15.817-9.159,26-25.469,26-42.62v-20c0-0.004,0-0.007,0-0.011C511.997,164.258,510.591,166.721,446,47.432z M81.912,60h40.213
	L88.792,160h-61.88L81.912,60z M184.195,60l-16.667,100h-57.654l33.333-100H184.195z M307.529,60l16.667,100H266V60H307.529z
	 M368.792,60l33.333,100h-57.654L327.805,60H368.792z M246,160h-58.195l16.667-100H246V160z M106,180h60v10
	c0,16.542-13.458,30-30,30s-30-13.458-30-30V180z M186,180h60v10c0,16.542-13.458,30-30,30s-30-13.458-30-30V180z M266,180h60v10
	c0,16.542-13.458,30-30,30s-30-13.458-30-30V180z M346,180h60v10c0,16.542-13.458,30-30,30s-30-13.458-30-30V180z M423.208,160
	L389.875,60h40.213l55,100H423.208z M86,30c0-5.514,4.486-10,10-10h320c5.514,0,10,4.486,10,10v10c-9.522,0-330.404,0-340,0V30z
	 M20,180h66v10c0,15.701-15.729,30-33,30c-4.354,0-8.866-0.945-13.066-2.742C28.011,212.187,20,201.232,20,190V180z M206,386H106
	v-86h100V386z M106,406h100v86H106V406z M226,492V290c0-5.522-4.478-10-10-10H96c-5.522,0-10,4.478-10,10v202H46V239.511
	c2.318,0.315,4.653,0.489,7,0.489c13.161,0,26.465-5.214,36.498-14.306c2.219-2.01,4.217-4.16,6.01-6.413
	C104.602,231.822,119.36,240,136,240c16.339,0,30.87-7.878,40-20.035C185.13,232.122,199.661,240,216,240s30.87-7.878,40-20.035
	C265.13,232.122,279.661,240,296,240s30.87-7.878,40-20.035C345.13,232.122,359.661,240,376,240c16.64,0,31.398-8.178,40.492-20.719
	c1.793,2.253,3.791,4.402,6.01,6.413C432.535,234.786,445.839,240,459,240c2.342,0,4.677-0.168,7-0.485V492H226z M492,190
	c0,11.548-8.309,22.629-20.674,27.575c-4.044,1.61-8.19,2.425-12.326,2.425c-17.271,0-33-14.299-33-30v-10h66V190z"/>
<path d="M436,386h-10v-96c0-5.522-4.478-10-10-10H296c-5.522,0-10,4.478-10,10v96h-10c-5.522,0-10,4.478-10,10s4.478,10,10,10h160
	c5.522,0,10-4.478,10-10S441.522,386,436,386z M306,300h100v86H306V300z"/>
<path d="M376,426h-80c-5.522,0-10,4.478-10,10s4.478,10,10,10h80c5.522,0,10-4.478,10-10S381.522,426,376,426z"/>
<g>
</g>
<g>
</g>
<g>
</g>
<g>
</g>
<g>
</g>
<g>
</g>
<g>
</g>
<g>
</g>
<g>
</g>
<g>
</g>
<g>
</g>
<g>
</g>
<g>
</g>
<g>
</g>
<g>
</g>
</svg>
